<svg width="66" height="76" viewBox="0 0 66 76" fill="none" xmlns="http://www.w3.org/2000/svg">
<path fill-rule="evenodd" clip-rule="evenodd" d="M33.0001 0.5C34.2433 0.5 35.4356 0.993861 36.3146 1.87294C37.1937 2.75201 37.6876 3.9443 37.6876 5.1875V59.4969L57.8063 39.3687C58.2421 38.9329 58.7595 38.5872 59.329 38.3513C59.8984 38.1155 60.5087 37.9941 61.1251 37.9941C61.7414 37.9941 62.3517 38.1155 62.9212 38.3513C63.4906 38.5872 64.008 38.9329 64.4438 39.3687C64.8796 39.8046 65.2253 40.322 65.4612 40.8914C65.6971 41.4608 65.8185 42.0712 65.8185 42.6875C65.8185 43.3038 65.6971 43.9142 65.4612 44.4836C65.2253 45.053 64.8796 45.5704 64.4438 46.0063L36.3188 74.1313C35.8834 74.5678 35.3661 74.9141 34.7966 75.1504C34.2271 75.3867 33.6166 75.5084 33.0001 75.5084C32.3835 75.5084 31.773 75.3867 31.2035 75.1504C30.634 74.9141 30.1167 74.5678 29.6813 74.1313L1.55631 46.0063C1.12049 45.5704 0.774773 45.053 0.538906 44.4836C0.30304 43.9142 0.181641 43.3038 0.181641 42.6875C0.181641 42.0712 0.30304 41.4608 0.538906 40.8914C0.774773 40.322 1.12049 39.8046 1.55631 39.3687C2.4365 38.4886 3.63029 37.9941 4.87506 37.9941C5.49141 37.9941 6.10173 38.1155 6.67116 38.3513C7.24059 38.5872 7.75799 38.9329 8.19381 39.3687L28.3126 59.4969V5.1875C28.3126 3.9443 28.8064 2.75201 29.6855 1.87294C30.5646 0.993861 31.7569 0.5 33.0001 0.5V0.5Z" fill="#32213A"/>
</svg>
